<?xml version="1.0" encoding="UTF-8" standalone="no"?>
<svg
   viewBox="0 0 32 32"
   version="1.1"
   id="svg12"
   sodipodi:docname="folder-inkscape.svg"
   inkscape:version="1.3.2 (091e20ef0f, 2023-11-25)"
   xmlns:inkscape="http://www.inkscape.org/namespaces/inkscape"
   xmlns:sodipodi="http://sodipodi.sourceforge.net/DTD/sodipodi-0.dtd"
   xmlns:xlink="http://www.w3.org/1999/xlink"
   xmlns="http://www.w3.org/2000/svg"
   xmlns:svg="http://www.w3.org/2000/svg"
   xmlns:rdf="http://www.w3.org/1999/02/22-rdf-syntax-ns#"
   xmlns:cc="http://creativecommons.org/ns#"
   xmlns:dc="http://purl.org/dc/elements/1.1/">
  <metadata
     id="metadata16">
    <rdf:RDF>
      <cc:Work
         rdf:about="">
        <dc:format>image/svg+xml</dc:format>
        <dc:type
           rdf:resource="http://purl.org/dc/dcmitype/StillImage" />
      </cc:Work>
    </rdf:RDF>
  </metadata>
  <sodipodi:namedview
     pagecolor="#ffffff"
     bordercolor="#666666"
     borderopacity="1"
     objecttolerance="10"
     gridtolerance="10"
     guidetolerance="10"
     inkscape:pageopacity="0"
     inkscape:pageshadow="2"
     inkscape:window-width="1920"
     inkscape:window-height="1003"
     id="namedview14"
     showgrid="false"
     inkscape:zoom="7.375"
     inkscape:cx="-6.5084746"
     inkscape:cy="16.067797"
     inkscape:window-x="0"
     inkscape:window-y="0"
     inkscape:window-maximized="1"
     inkscape:current-layer="svg12"
     inkscape:showpageshadow="2"
     inkscape:pagecheckerboard="0"
     inkscape:deskcolor="#d1d1d1" />
  <defs
     id="defs3051">
    <linearGradient
       inkscape:collect="always"
       id="linearGradient835">
      <stop
         style="stop-color:#00b8b8;stop-opacity:1"
         offset="0"
         id="stop831" />
      <stop
         style="stop-color:#00b8b8;stop-opacity:1"
         offset="1"
         id="stop833" />
    </linearGradient>
    <linearGradient
       inkscape:collect="always"
       id="linearGradient827">
      <stop
         style="stop-color:#00b8b8;stop-opacity:1"
         offset="0"
         id="stop823" />
      <stop
         style="stop-color:#001e1e;stop-opacity:1"
         offset="1"
         id="stop825" />
    </linearGradient>
    <style
       type="text/css"
       id="current-color-scheme">
      .ColorScheme-Text {
        color:#31363b;
      }
      .ColorScheme-Background {
        color:#eff0f1;
      }
      .ColorScheme-Highlight {
        color:#3daee9;
      }
      .ColorScheme-ViewText {
        color:#31363b;
      }
      .ColorScheme-ViewBackground {
        color:#fcfcfc;
      }
      .ColorScheme-ViewHover {
        color:#93cee9;
      }
      .ColorScheme-ViewFocus{
        color:#3daee9;
      }
      .ColorScheme-ButtonText {
        color:#31363b;
      }
      .ColorScheme-ButtonBackground {
        color:#eff0f1;
      }
      .ColorScheme-ButtonHover {
        color:#93cee9;
      }
      .ColorScheme-ButtonFocus{
        color:#3daee9;
      }
      </style>
    <linearGradient
       inkscape:collect="always"
       xlink:href="#linearGradient827"
       id="linearGradient829"
       x1="1"
       y1="16"
       x2="53.237289"
       y2="16.542374"
       gradientUnits="userSpaceOnUse" />
    <linearGradient
       inkscape:collect="always"
       xlink:href="#linearGradient835"
       id="linearGradient837"
       x1="2"
       y1="6.5"
       x2="30"
       y2="6.5"
       gradientUnits="userSpaceOnUse" />
  </defs>
  <path
     style="fill:url(#linearGradient829);fill-opacity:1;stroke:none"
     d="M 2 3 L 2 10 L 1 10 L 1 29 L 12 29 L 13 29 L 31 29 L 31 8 L 30 8 L 30 5 L 16 5 L 14 3 L 2 3 z "
     class="ColorScheme-Highlight"
     id="path4" />
  <path
     style="fill-opacity:1;fill-rule:evenodd;fill:url(#linearGradient837)"
     d="m 2,3 0,7 9,0 L 13,8 30,8 30,5 16,5 14,3 2,3 Z"
     id="path6" />
  <path
     style="fill:#ffffff;fill-opacity:0.2;fill-rule:evenodd"
     d="M 14 3 L 15 6 L 30 6 L 30 5 L 16 5 L 14 3 z M 13 8 L 11 10 L 1 10 L 1 11 L 12 11 L 13 8 z "
     id="path8" />
  <path
     style="fill-opacity:0.2;fill-rule:evenodd"
     d="M 13 8 L 11 9 L 2 9 L 2 10 L 11 10 L 13 8 z M 1 28 L 1 29 L 31 29 L 31 28 L 1 28 z "
     class="ColorScheme-Text"
     id="path10" />
  <path
     id="path18-3-9-7"
     d="m 15.916024,13.500007 c -0.30921,-10e-4 -0.616666,0.113294 -0.838571,0.343512 l -3.691294,3.827978 c -1.247489,1.565373 0.848987,1.383654 1.747681,1.834523 0.32241,0.333868 -1.235432,0.579125 -0.913032,0.913276 0.322369,0.333955 1.94786,0.64295 2.270738,0.976851 0.322372,0.333913 -0.659378,0.688582 -0.337,1.022439 0.322381,0.33391 1.067299,0.01732 1.206916,0.78821 0.09948,0.550855 1.344986,0.2367 1.953374,-0.214416 0.32239,-0.334159 -0.616288,-0.301429 -0.29392,-0.635313 0.80163,-0.830762 1.547865,-0.303301 1.822154,-1.135694 0.135476,-0.41132 -1.181083,-0.63299 -0.858187,-0.96689 0.927604,-0.548988 4.133044,-0.906612 2.611729,-2.44802 l -3.826411,-3.962944 c -0.234014,-0.227689 -0.545033,-0.342889 -0.854307,-0.3435 z m 0.03145,0.363335 c 0.220786,0.0018 0.441094,0.08549 0.599559,0.248159 l 1.461627,1.502994 c 0.138515,0.143372 0.1363,0.420346 0.05877,0.500258 l -0.724963,-0.58764 -0.143022,0.871548 -0.60542,-0.323594 -0.971787,0.61943 -0.321324,-1.308344 -0.521184,0.913298 h -0.795497 c -0.324813,0 -0.363742,-0.417661 -0.06851,-0.716738 0.515623,-0.563958 1.106834,-1.138177 1.428313,-1.471212 0.161597,-0.16735 0.38268,-0.24935 0.603461,-0.248159 z m -1.753455,5.848909 c 0.09868,0.06212 1.590707,0.369502 1.955347,0.430832 0.1264,0.027 0.037,0.159064 -0.137133,0.248168 -0.392981,0.105828 -2.299253,-0.679007 -1.81828,-0.679007 z m 5.803494,1.052246 c -0.300284,0.0107 -0.596345,0.165217 -0.677961,0.456676 0,0.189948 1.379389,0.315578 1.379389,-0.04357 -0.0984,-0.288577 -0.401247,-0.423491 -0.701394,-0.413006 z m -6.332558,0.821982 c -0.432794,-0.005 -0.939567,0.317583 -0.56619,0.645237 0.327046,0.286538 0.832107,-0.07255 0.98353,-0.472537 -0.08911,-0.119997 -0.247951,-0.171119 -0.41733,-0.1727 z m 5.480001,0.02558 c -0.421545,0.383177 0.04685,0.771691 0.462346,0.524164 0.09257,-0.09526 -0.0049,-0.428908 -0.462346,-0.524164 z"
     stroke-width="0.989814"
     style="color:#eff0f1;fill:#f4f5f5;fill-opacity:1"
     class="ColorScheme-Text" />
</svg>
