<?xml version="1.0" encoding="UTF-8" standalone="no"?>
<svg
   viewBox="0 0 64 64"
   version="1.1"
   id="svg12"
   sodipodi:docname="folder-inkscape.svg"
   inkscape:version="1.3.2 (091e20ef0f, 2023-11-25)"
   xmlns:inkscape="http://www.inkscape.org/namespaces/inkscape"
   xmlns:sodipodi="http://sodipodi.sourceforge.net/DTD/sodipodi-0.dtd"
   xmlns:xlink="http://www.w3.org/1999/xlink"
   xmlns="http://www.w3.org/2000/svg"
   xmlns:svg="http://www.w3.org/2000/svg"
   xmlns:rdf="http://www.w3.org/1999/02/22-rdf-syntax-ns#"
   xmlns:cc="http://creativecommons.org/ns#"
   xmlns:dc="http://purl.org/dc/elements/1.1/">
  <metadata
     id="metadata16">
    <rdf:RDF>
      <cc:Work
         rdf:about="">
        <dc:format>image/svg+xml</dc:format>
        <dc:type
           rdf:resource="http://purl.org/dc/dcmitype/StillImage" />
      </cc:Work>
    </rdf:RDF>
  </metadata>
  <sodipodi:namedview
     pagecolor="#ffffff"
     bordercolor="#666666"
     borderopacity="1"
     objecttolerance="10"
     gridtolerance="10"
     guidetolerance="10"
     inkscape:pageopacity="0"
     inkscape:pageshadow="2"
     inkscape:window-width="1920"
     inkscape:window-height="1003"
     id="namedview14"
     showgrid="false"
     inkscape:zoom="2.6074563"
     inkscape:cx="-47.555926"
     inkscape:cy="14.381833"
     inkscape:window-x="0"
     inkscape:window-y="0"
     inkscape:window-maximized="1"
     inkscape:current-layer="svg12"
     inkscape:showpageshadow="2"
     inkscape:pagecheckerboard="0"
     inkscape:deskcolor="#d1d1d1" />
  <defs
     id="defs3051">
    <linearGradient
       inkscape:collect="always"
       id="linearGradient835">
      <stop
         style="stop-color:#00b8b8;stop-opacity:1"
         offset="0"
         id="stop831" />
      <stop
         style="stop-color:#00b8b8;stop-opacity:1"
         offset="1"
         id="stop833" />
    </linearGradient>
    <linearGradient
       inkscape:collect="always"
       id="linearGradient827">
      <stop
         style="stop-color:#00b8b8;stop-opacity:1"
         offset="0"
         id="stop823" />
      <stop
         style="stop-color:#001e1e;stop-opacity:1"
         offset="1"
         id="stop825" />
    </linearGradient>
    <style
       type="text/css"
       id="current-color-scheme">
      .ColorScheme-Text {
        color:#31363b;
      }
      .ColorScheme-Background {
        color:#eff0f1;
      }
      .ColorScheme-Highlight {
        color:#3daee9;
      }
      .ColorScheme-ViewText {
        color:#31363b;
      }
      .ColorScheme-ViewBackground {
        color:#fcfcfc;
      }
      .ColorScheme-ViewHover {
        color:#93cee9;
      }
      .ColorScheme-ViewFocus{
        color:#3daee9;
      }
      .ColorScheme-ButtonText {
        color:#31363b;
      }
      .ColorScheme-ButtonBackground {
        color:#eff0f1;
      }
      .ColorScheme-ButtonHover {
        color:#93cee9;
      }
      .ColorScheme-ButtonFocus{
        color:#3daee9;
      }
      </style>
    <linearGradient
       inkscape:collect="always"
       xlink:href="#linearGradient827"
       id="linearGradient829"
       x1="3"
       y1="32"
       x2="95.516396"
       y2="33.150547"
       gradientUnits="userSpaceOnUse" />
    <linearGradient
       inkscape:collect="always"
       xlink:href="#linearGradient835"
       id="linearGradient837"
       x1="4"
       y1="13"
       x2="60"
       y2="13"
       gradientUnits="userSpaceOnUse" />
  </defs>
  <path
     style="fill:url(#linearGradient829);fill-opacity:1;stroke:none"
     d="M 4 6 L 4 11 L 4 20 L 3 20 L 3 21 L 3.0019531 21 C 3.0019031 21.004 3 21.008019 3 21.011719 L 3 57 L 3 58 L 4 58 L 60 58 L 61 58 L 61 57 L 61 21.011719 L 61 21 L 61 16 L 60 16 L 60 11.009766 C 60 11.006766 59.998047 11.004 59.998047 11 L 60 11 L 60 10 L 32 10 L 28 6 L 4 6 z "
     class="ColorScheme-Highlight"
     id="path4" />
  <path
     style="fill:url(#linearGradient837);fill-opacity:1;fill-rule:evenodd"
     d="m 3.9999997,6 v 5 9 H 22 l 4,-4 h 34 v -4.990234 c 0,-0.003 -0.002,-0.0058 -0.002,-0.0098 H 60 v -1 H 32 l -4,-4 z"
     id="path6"
     inkscape:connector-curvature="0" />
  <path
     style="fill:#ffffff;fill-opacity:0.2;fill-rule:evenodd"
     d="M 28 6 L 31 11 L 33 11 L 60 11 L 60 10 L 33 10 L 32 10 L 28 6 z M 26 16 L 22 20 L 3 20 L 3 21 L 23 21 L 26 16 z "
     id="path8" />
  <path
     style="fill-opacity:0.2;fill-rule:evenodd"
     d="M 26 16 L 20 19 L 4 19 L 4 20 L 22 20 L 26 16 z M 3 57 L 3 58 L 4 58 L 60 58 L 61 58 L 61 57 L 60 57 L 4 57 L 3 57 z "
     class="ColorScheme-Text"
     id="path10" />
  <path
     id="path18-3-9-7"
     d="m 31.832047,27.000012 c -0.618432,-0.002 -1.23332,0.226589 -1.677137,0.68702 l -7.38258,7.655964 c -2.49498,3.130753 1.697965,2.767306 3.495341,3.669039 0.644837,0.667751 -2.470862,1.158246 -1.826062,1.82656 0.644748,0.667898 3.895735,1.285887 4.541475,1.953688 0.644734,0.66784 -1.31874,1.377166 -0.67399,2.044901 0.644755,0.66781 2.134588,0.03453 2.413838,1.576411 0.198963,1.101701 2.689965,0.4734 3.906735,-0.428825 0.644782,-0.668336 -1.23257,-0.602879 -0.587851,-1.270638 1.603275,-1.661529 3.095755,-0.606601 3.644329,-2.271382 0.270946,-0.822643 -2.362159,-1.265979 -1.716373,-1.933779 1.855214,-1.097977 8.266076,-1.813222 5.223439,-4.89604 l -7.65281,-7.925899 c -0.468015,-0.45538 -1.090057,-0.68578 -1.708608,-0.687 z m 0.06289,0.72666 c 0.441576,0.003 0.882186,0.17105 1.199111,0.496331 l 2.923257,3.005992 c 0.277032,0.286747 0.272597,0.840676 0.117682,1.000514 l -1.449923,-1.175296 -0.286052,1.743117 -1.210844,-0.647188 -1.943563,1.238855 -0.642666,-2.616688 -1.04235,1.826594 h -1.590988 c -0.649651,0 -0.72749,-0.835314 -0.137147,-1.43349 1.031257,-1.127897 2.213667,-2.276349 2.856624,-2.94241 0.323197,-0.334711 0.765369,-0.498691 1.206926,-0.496331 z m -3.506923,11.697819 c 0.197373,0.124151 3.181423,0.739016 3.910705,0.86168 0.2528,0.054 0.074,0.318112 -0.274273,0.496323 -0.785973,0.211667 -4.598498,-1.35802 -3.63657,-1.35802 z m 11.60699,2.104504 c -0.600565,0.02145 -1.192684,0.330418 -1.35593,0.913355 0,0.379885 2.758776,0.631153 2.758776,-0.08727 -0.1968,-0.577155 -0.80248,-0.846983 -1.402794,-0.826011 z m -12.665112,1.643967 c -0.865577,-0.01088 -1.879128,0.635163 -1.132372,1.290452 0.654081,0.573093 1.664212,-0.145214 1.967051,-0.945052 -0.1782,-0.239991 -0.495916,-0.342239 -0.834651,-0.3454 z m 10.959989,0.05127 c -0.843083,0.766348 0.09385,1.543389 0.924704,1.04832 0.185183,-0.190496 -0.0085,-0.85782 -0.924704,-1.04832 z"
     stroke-width="1.97972"
     style="color:#eff0f1;fill:#ffffff;fill-opacity:1"
     class="ColorScheme-Text" />
</svg>
